<?xml version="1.0" standalone="no"?>
<!DOCTYPE svg PUBLIC "-//W3C//DTD SVG 20010904//EN"
 "http://www.w3.org/TR/2001/REC-SVG-20010904/DTD/svg10.dtd">
<svg version="1.0" xmlns="http://www.w3.org/2000/svg"
 width="192.000000pt" height="192.000000pt" viewBox="0 0 192.000000 192.000000"
 preserveAspectRatio="xMidYMid meet">

<g transform="translate(0.000000,192.000000) scale(0.100000,-0.100000)"
fill="#000000" stroke="none">
<path d="M912 1699 c-28 -17 -52 -34 -52 -37 0 -4 31 -62 68 -130 l68 -123
113 -75 c62 -42 114 -74 116 -72 2 3 -246 453 -255 462 -3 2 -29 -9 -58 -25z"/>
<path d="M1145 1699 c-27 -18 -51 -33 -53 -34 -2 -1 42 -85 98 -185 55 -100
100 -186 100 -191 0 -5 -11 -16 -25 -25 l-25 -16 49 -39 c124 -99 224 -291
238 -458 l6 -75 48 52 c54 59 102 151 118 230 6 29 11 134 11 232 l0 180 -91
0 -90 0 3 -110 c2 -61 0 -110 -3 -110 -3 0 -77 130 -165 290 -87 159 -161 290
-164 290 -3 0 -27 -14 -55 -31z"/>
<path d="M780 1510 c-25 -16 -45 -33 -45 -38 0 -22 100 -191 108 -183 5 5 24
33 41 62 l33 54 -36 67 c-20 37 -40 67 -46 67 -5 0 -30 -13 -55 -29z"/>
<path d="M655 1329 c-27 -18 -52 -33 -54 -35 -1 -1 17 -39 40 -83 41 -76 46
-81 76 -81 27 0 37 7 56 37 l24 38 -31 56 c-17 30 -38 65 -46 77 l-15 22 -50
-31z"/>
<path d="M962 1297 c-14 -19 -82 -134 -82 -139 0 -3 44 -34 97 -69 l97 -64
-352 -3 -352 -2 0 -70 0 -70 225 0 225 0 0 -35 0 -35 -270 0 -270 0 0 -70 0
-70 270 0 270 0 0 -35 0 -35 -225 0 -225 0 0 -70 0 -70 225 0 225 0 0 -35 0
-35 -180 0 -180 0 0 -71 0 -70 328 3 c385 4 397 6 506 108 104 98 146 198 146
350 0 158 -46 268 -155 375 -86 84 -309 230 -323 212z"/>
</g>
</svg>
