<?xml version="1.0" standalone="no"?>
<!DOCTYPE svg PUBLIC "-//W3C//DTD SVG 20010904//EN"
 "http://www.w3.org/TR/2001/REC-SVG-20010904/DTD/svg10.dtd">
<svg version="1.0" xmlns="http://www.w3.org/2000/svg"
 width="512.000000pt" height="512.000000pt" viewBox="0 0 512.000000 512.000000"
 preserveAspectRatio="xMidYMid meet">

<g transform="translate(0.000000,512.000000) scale(0.100000,-0.100000)"
fill="#000000" stroke="none">
<path d="M2435 4534 c-77 -47 -143 -89 -147 -93 -8 -7 93 -196 278 -522 l94
-167 302 -199 c167 -110 309 -203 316 -207 8 -5 3 11 -10 37 -62 119 -684
1237 -688 1237 -3 0 -68 -39 -145 -86z"/>
<path d="M3047 4528 l-148 -90 47 -86 c26 -48 150 -273 276 -501 125 -227 228
-417 228 -421 0 -5 -28 -25 -62 -46 -96 -57 -95 -51 -26 -101 82 -61 227 -202
301 -293 259 -320 396 -688 429 -1150 l3 -35 72 71 c192 192 324 447 374 723
17 93 19 158 19 583 l0 478 -235 0 -235 0 0 -312 c0 -189 -4 -308 -9 -302 -5
5 -94 164 -198 354 -333 606 -645 1174 -660 1198 -7 12 -17 22 -21 21 -4 0
-74 -41 -155 -91z"/>
<path d="M2078 4029 l-148 -90 30 -52 c17 -29 85 -150 151 -270 67 -120 123
-216 126 -214 2 3 51 82 108 177 l103 172 -34 62 c-19 33 -65 116 -102 183
-37 68 -71 123 -77 122 -5 0 -76 -41 -157 -90z"/>
<path d="M1740 3540 c-80 -49 -145 -92 -145 -97 0 -5 54 -107 120 -226 l119
-217 83 0 82 0 62 103 c34 56 62 107 62 112 0 6 -40 80 -88 165 -48 85 -98
176 -111 203 -13 26 -28 47 -32 46 -4 0 -72 -40 -152 -89z"/>
<path d="M2457 3290 l-125 -209 269 -178 270 -178 -941 -3 -940 -2 0 -185 0
-185 595 0 595 0 0 -95 0 -95 -715 0 -715 0 0 -185 0 -185 715 0 715 0 0 -95
0 -95 -595 0 -595 0 0 -185 0 -185 593 -2 592 -3 3 -92 3 -93 -476 0 -475 0 0
-191 0 -190 813 4 c783 3 815 4 902 24 231 54 413 158 575 329 154 162 254
357 306 594 28 127 26 437 -4 576 -62 291 -181 513 -378 711 -92 92 -136 124
-470 346 -203 134 -374 247 -380 250 -7 4 -59 -73 -137 -203z"/>
</g>
</svg>
